:SAMPLES-PER-SECOND 30
:FULLY-SPECIFIED
:DEGREES
483
root  72.1581 40.1669 -1.56696 -140.663 -86.0219 135.587
RightUpLeg  -0.64832 -10.2082 -6.29556
RightLeg  11.4532 0.559665 2.73835
RightFoot  -8.10014 -0.115475 2.12918
RightToes  2.32829e-010 0 -3.6325e-017
Spine  7.78394 0.230317 1.55259
Spine1  -0.452339 0.857646 -2.36272
HEad  -0.962483 4.26028 -0.0994278
LeftShoulder1  1.02242 -3.0622 -8.00169
LeftArm  -22.1487 14.737 -1.32256
LeftForeArm  11.4661 -13.7745 -1.53604
LeftHand  -0.244104 0.0205437 5.32207
RightShoulder  0.512439 0.11903 6.50117
RightArm  -23.7318 -5.71463 2.59613
RightForeArm  -14.8536 7.31034 3.66878
RightHand  -1.28228 2.18118 -19.7013
LeftUpLeg  0.963619 6.64519 -0.0117376
LeftLeg  8.73563 10.8845 -1.26088
LeftFoot  -5.58536 0.0750144 -0.832358
LeftToes  1.42787e-010 7.94111e-011 2.6399e-011
484
root  72.2111 40.2059 -1.65274 -136.215 -86.259 131.09
RightUpLeg  -0.372028 -9.98883 -6.21259
RightLeg  10.8763 -0.0734562 2.78727
RightFoot  -7.51308 -0.0994659 1.44262
RightToes  2.32829e-010 0 -3.6325e-017
Spine  7.43402 0.168217 0.956915
Spine1  -0.762371 0.66395 -1.87925
HEad  -0.909009 4.14671 -0.130814
LeftShoulder1  0.763226 -2.20817 -5.519
LeftArm  -23.8068 13.7394 -0.363847
LeftForeArm  11.6414 -14.9931 -1.64764
LeftHand  -0.244104 0.0205437 5.32207
RightShoulder  0.364717 -0.589771 4.65991
RightArm  -24.0284 -4.53226 1.31871
RightForeArm  -13.8523 7.18504 3.59664
RightHand  -1.22553 1.94812 -19.4322
LeftUpLeg  1.32332 5.76977 0.0633255
LeftLeg  7.79118 11.4248 -1.61902
LeftFoot  -4.76733 0.0453418 -0.276551
LeftToes  1.42787e-010 7.94111e-011 2.6399e-011
485
root  72.2761 40.2308 -1.71861 -131.089 -86.508 126.04
RightUpLeg  -0.277732 -9.81137 -6.13543
RightLeg  10.4073 -0.736092 2.85939
RightFoot  -7.25975 -0.0869508 1.05504
RightToes  2.32829e-010 0 -3.6325e-017
Spine  7.10787 0.179459 0.70429
Spine1  -1.17494 0.636984 -1.77807
HEad  -0.716976 3.74108 -0.0654256
LeftShoulder1  0.56788 -1.62837 -2.94864
LeftArm  -24.9225 12.5302 -0.368388
LeftForeArm  11.2986 -15.5538 -1.78022
LeftHand  -0.244104 0.0205437 5.32207
RightShoulder  0.253238 -1.30751 3.53828
RightArm  -24.4787 -3.7714 0.175574
RightForeArm  -12.5363 7.14046 3.46498
RightHand  -1.30266 2.6549 -18.8781
LeftUpLeg  1.40197 5.14287 0.0905694
LeftLeg  7.12894 11.568 -1.80415
LeftFoot  -4.37483 0.0471745 -0.266647
LeftToes  1.42787e-010 7.94111e-011 2.6399e-011
486
root  72.3511 40.2466 -1.77071 -129.325 -86.55 124.353
RightUpLeg  -0.343365 -9.74433 -6.07152
RightLeg  10.1481 -0.986393 2.91919
RightFoot  -7.04642 -0.082762 0.926016
RightToes  2.32829e-010 0 -3.6325e-017
Spine  6.85688 0.330682 0.574013
Spine1  -1.48629 0.754937 -1.66654
HEad  -0.707831 3.5216 -0.0772518
LeftShoulder1  0.466466 -1.32163 -1.36015
LeftArm  -24.7364 11.0554 -0.246503
LeftForeArm  10.1662 -14.9913 -1.78799
LeftHand  -0.244104 0.0205437 5.32207
RightShoulder  0.184158 -1.77368 2.53947
RightArm  -24.8173 -3.39945 -0.552717
RightForeArm  -11.7514 7.05317 3.3678
RightHand  -1.33009 3.19946 -18.0791
LeftUpLeg  1.40815 4.75923 0.134831
LeftLeg  6.63945 11.7856 -1.96915
LeftFoot  -4.08578 0.0588764 -0.426849
LeftToes  1.42787e-010 7.94111e-011 2.6399e-011
487
root  72.4237 40.2569 -1.82802 -129.767 -86.4805 124.822
RightUpLeg  -0.432904 -9.70323 -5.98904
RightLeg  9.99806 -1.02034 2.92464
RightFoot  -6.83262 -0.0833165 0.896032
RightToes  2.32829e-010 0 -3.6325e-017
Spine  6.64211 0.455223 0.284154
Spine1  -1.60654 0.795081 -1.2972
HEad  -0.95407 3.72682 -0.151645
LeftShoulder1  0.412144 -1.0759 -0.594486
LeftArm  -23.3175 9.51199 0.0233036
LeftForeArm  8.98995 -13.0242 -1.67568
LeftHand  -0.244104 0.0205437 5.32207
RightShoulder  0.156092 -1.91888 1.63035
RightArm  -24.8253 -2.94055 -0.839481
RightForeArm  -11.1528 6.57738 3.29539
RightHand  -1.24306 2.9722 -17.3737
LeftUpLeg  1.4092 4.56795 0.196596
LeftLeg  6.34911 12.053 -2.0905
LeftFoot  -3.80497 0.05913 -0.42372
LeftToes  1.42787e-010 7.94111e-011 2.6399e-011
488
root  72.4896 40.2632 -1.88909 -127.401 -86.5131 122.468
RightUpLeg  -0.489348 -9.64305 -5.91248
RightLeg  9.89559 -1.25723 2.8885
RightFoot  -6.72978 -0.0784065 0.792253
RightToes  2.32829e-010 0 -3.6325e-017
Spine  6.47187 0.382393 -0.156445
Spine1  -1.66313 0.616978 -0.813746
HEad  -1.09462 4.06954 -0.285894
LeftShoulder1  0.370319 -0.880001 0.0273636
LeftArm  -21.6466 8.22295 -0.0715569
LeftForeArm  8.44141 -9.9882 -1.62635
LeftHand  -0.244104 0.0205437 5.32207
RightShoulder  0.143501 -1.97843 1.12271
RightArm  -24.6623 -2.19034 -0.796423
RightForeArm  -10.1236 5.71067 3.18116
RightHand  -1.14397 2.45822 -17.0326
LeftUpLeg  1.37569 4.44301 0.231251
LeftLeg  6.17855 12.0555 -2.15635
LeftFoot  -3.65849 0.0584286 -0.41819
LeftToes  1.42787e-010 7.94111e-011 2.6399e-011
489
root  72.5583 40.2654 -1.93179 -121.044 -86.6883 116.134
RightUpLeg  -0.538511 -9.65812 -5.90818
RightLeg  9.84374 -1.67709 2.89881
RightFoot  -6.70461 -0.0724585 0.681741
RightToes  2.32829e-010 0 -3.6325e-017
Spine  6.40502 0.166833 -0.509238
Spine1  -1.74161 0.319864 -0.422317
HEad  -1.35257 4.33489 -0.294471
LeftShoulder1  0.372494 -1.03937 0.310684
LeftArm  -20.3277 7.36018 -0.314658
LeftForeArm  7.78645 -6.58356 -1.63128
LeftHand  -0.244104 0.0205437 5.32207
RightShoulder  0.136147 -2.04985 1.07364
RightArm  -24.5409 -1.54778 -0.581563
RightForeArm  -8.8786 4.79324 3.02202
RightHand  -1.10831 2.26721 -16.909
LeftUpLeg  1.2512 4.2967 0.199436
LeftLeg  6.07824 11.808 -2.15276
LeftFoot  -3.62716 0.0609175 -0.472535
LeftToes  1.42787e-010 7.94111e-011 2.6399e-011
490
root  72.6366 40.2636 -1.94806 -114.669 -86.8517 109.801
RightUpLeg  -0.612833 -9.75694 -5.95711
RightLeg  9.7843 -1.97959 2.99037
RightFoot  -6.64766 -0.0776233 0.751452
RightToes  2.32829e-010 0 -3.6325e-017
Spine  6.42799 -0.00798005 -0.654765
Spine1  -1.77891 0.088816 -0.13964
HEad  -1.97693 4.41791 -0.185443
LeftShoulder1  0.438519 -1.57469 -0.18515
LeftArm  -19.2774 6.86117 -0.318575
LeftForeArm  6.02758 -3.40556 -1.63693
LeftHand  -0.244104 0.0205437 5.32207
RightShoulder  0.149389 -1.9389 1.27531
RightArm  -24.2325 -1.42057 -0.37986
RightForeArm  -7.7594 4.0111 2.90406
RightHand  -1.09768 2.30459 -16.6716
LeftUpLeg  1.01936 4.12425 0.108222
LeftLeg  6.1007 11.6668 -2.03645
LeftFoot  -3.62698 0.0565028 -0.427741
LeftToes  1.42787e-010 7.94111e-011 2.6399e-011
491
root  72.7168 40.2609 -1.95453 -112.66 -86.9155 107.846
RightUpLeg  -0.71662 -9.77989 -5.95687
RightLeg  9.66505 -2.0819 3.07133
RightFoot  -6.55956 -0.0919757 0.969861
RightToes  2.32829e-010 0 -3.6325e-017
Spine  6.51929 -0.0533675 -0.66539
Spine1  -1.77665 0.00798698 0.0352176
HEad  -2.99799 4.45872 0.0139418
LeftShoulder1  0.517935 -2.04936 -0.986159
LeftArm  -18.3978 6.62196 -0.460444
LeftForeArm  3.43418 -0.805636 -1.72299
LeftHand  -0.244104 0.0205437 5.32207
RightShoulder  0.186172 -1.6185 1.64987
RightArm  -23.3695 -1.61724 -0.296724
RightForeArm  -6.31788 3.21371 2.89109
RightHand  -1.05007 2.16551 -16.2463
LeftUpLeg  0.769383 3.96557 0.0185685
LeftLeg  6.20166 11.8029 -1.85476
LeftFoot  -3.6621 0.0470768 -0.311072
LeftToes  1.42787e-010 7.94111e-011 2.6399e-011
492
root  72.7873 40.2599 -1.96498 -114.433 -86.8909 109.647
RightUpLeg  -0.826276 -9.66454 -5.88173
RightLeg  9.56106 -2.10388 3.05291
RightFoot  -6.50355 -0.102111 1.12729
RightToes  2.32829e-010 0 -3.6325e-017
Spine  6.72939 -0.0123268 -0.643108
Spine1  -1.84431 0.0394989 0.0703785
HEad  -4.16976 4.54894 0.280367
LeftShoulder1  0.553815 -2.21317 -1.39305
LeftArm  -17.6428 6.64485 -1.16216
LeftForeArm  0.964707 1.0413 -1.883
LeftHand  -0.244104 0.0205437 5.32207
RightShoulder  0.219429 -1.37886 2.17243
RightArm  -22.2071 -1.67046 -0.219159
RightForeArm  -3.98456 2.2022 2.89197
RightHand  -0.99373 1.97292 -15.7828
LeftUpLeg  0.63032 3.8782 -0.0119107
LeftLeg  6.23189 12.0272 -1.75662
LeftFoot  -3.69134 0.0428982 -0.27981
LeftToes  1.42787e-010 7.94111e-011 2.6399e-011
493
root  72.8458 40.2591 -1.97309 -116.773 -86.8131 111.971
RightUpLeg  -0.93504 -9.56821 -5.82586
RightLeg  9.56869 -2.06714 2.98541
RightFoot  -6.47738 -0.103084 1.14541
RightToes  2.32829e-010 0 -3.6325e-017
Spine  7.0356 0.0518433 -0.637651
Spine1  -1.99406 0.10426 0.052662
HEad  -5.20588 4.59472 0.499305
LeftShoulder1  0.573151 -2.31129 -1.5827
LeftArm  -17.1159 6.93994 -1.9759
LeftForeArm  -0.502974 2.15434 -1.99112
LeftHand  -0.244104 0.0205437 5.32207
RightShoulder  0.229567 -1.36234 2.6157
RightArm  -21.4854 -1.49897 0.0263576
RightForeArm  -1.26065 1.0234 2.75254
RightHand  -0.997525 2.22015 -15.3506
LeftUpLeg  0.609893 3.89007 0.0105464
LeftLeg  6.14824 12.1554 -1.81904
LeftFoot  -3.61386 0.0430517 -0.317585
LeftToes  1.42787e-010 7.94111e-011 2.6399e-011
494
root  72.8963 40.2585 -1.96903 -118.431 -86.7297 113.634
RightUpLeg  -1.08089 -9.6068 -5.84045
RightLeg  9.6439 -1.93244 2.97236
RightFoot  -6.4213 -0.100793 1.11408
RightToes  2.32829e-010 0 -3.6325e-017
Spine  7.26002 0.105353 -0.636799
Spine1  -2.09789 0.148744 0.0878248
HEad  -5.9166 4.50299 0.54675
LeftShoulder1  0.622096 -2.56927 -2.02198
LeftArm  -16.8292 7.40367 -2.28471
LeftForeArm  -0.665459 2.69174 -1.98448
LeftHand  -0.244104 0.0205437 5.32207
RightShoulder  0.231083 -1.37806 2.78436
RightArm  -21.4827 -1.39482 0.376371
RightForeArm  0.534354 0.0169021 2.49344
RightHand  -1.04177 2.77854 -14.959
LeftUpLeg  0.580173 3.95645 0.0434564
LeftLeg  6.04298 12.2221 -1.96104
LeftFoot  -3.45709 0.041447 -0.327603
LeftToes  1.42787e-010 7.94111e-011 2.6399e-011
